<?xml version="1.0" standalone="no"?>
<!DOCTYPE svg PUBLIC "-//W3C//DTD SVG 20010904//EN"
 "http://www.w3.org/TR/2001/REC-SVG-20010904/DTD/svg10.dtd">
<svg version="1.0" xmlns="http://www.w3.org/2000/svg"
 width="382.000000pt" height="382.000000pt" viewBox="0 0 382.000000 382.000000"
 preserveAspectRatio="xMidYMid meet">

<g transform="translate(0.000000,382.000000) scale(0.100000,-0.100000)"
fill="#000000" stroke="none">
<path d="M1110 3516 c-127 -27 -248 -124 -307 -244 l-38 -76 0 -561 0 -560 32
-66 c60 -122 151 -202 271 -239 57 -18 93 -20 322 -20 l259 0 3 -232 3 -233
35 -69 c48 -97 120 -167 217 -214 l78 -37 523 -3 c461 -2 531 -1 580 13 139
40 237 122 296 245 l31 65 0 565 0 565 -31 66 c-39 81 -91 141 -167 190 -91
59 -154 69 -441 69 l-245 0 -3 233 -3 233 -34 69 c-63 127 -182 219 -320 245
-79 15 -990 12 -1061 -4z m1075 -233 c47 -25 85 -64 111 -113 18 -33 19 -66
19 -525 0 -550 0 -552 -72 -616 -69 -60 -57 -59 -595 -59 -458 0 -496 2 -533
19 -49 22 -87 57 -112 102 -17 32 -18 70 -21 534 l-3 500 28 55 c33 64 86 106
153 119 25 5 256 9 515 8 461 -2 471 -2 510 -24z m900 -793 c38 -20 58 -39 83
-80 l32 -54 0 -503 c0 -491 -1 -505 -21 -545 -29 -57 -75 -96 -133 -113 -74
-22 -949 -22 -1023 0 -61 18 -126 83 -142 141 -6 22 -11 123 -11 226 l0 186
168 4 167 3 75 36 c93 45 169 120 213 209 l32 64 3 229 3 228 252 -3 c248 -3
253 -3 302 -28z"/>
<path d="M409 1459 c-50 -50 5 -267 105 -418 230 -345 690 -532 1231 -500 77
4 155 11 173 14 17 3 32 4 32 1 0 -3 -63 -67 -140 -143 -93 -92 -140 -145
-140 -159 0 -12 9 -33 21 -48 16 -20 29 -26 57 -26 34 1 54 17 277 231 132
127 244 241 248 254 20 58 3 70 -323 222 -168 79 -312 143 -321 143 -9 0 -28
-9 -43 -21 -29 -23 -36 -73 -13 -102 6 -9 91 -52 187 -97 96 -45 179 -85 183
-89 21 -21 -253 -41 -418 -31 -149 9 -223 21 -339 55 -221 64 -413 194 -532
361 -61 85 -93 161 -110 257 -10 60 -20 87 -35 100 -29 23 -74 22 -100 -4z"/>
</g>
</svg>
