<?xml version="1.0" standalone="no"?>
<!DOCTYPE svg PUBLIC "-//W3C//DTD SVG 20010904//EN"
 "http://www.w3.org/TR/2001/REC-SVG-20010904/DTD/svg10.dtd">
<svg version="1.0" xmlns="http://www.w3.org/2000/svg"
 width="382.000000pt" height="382.000000pt" viewBox="0 0 382.000000 382.000000"
 preserveAspectRatio="xMidYMid meet">

<g transform="translate(0.000000,382.000000) scale(0.100000,-0.100000)"
fill="#000000" stroke="none">
<path d="M1635 3646 c-152 -35 -272 -102 -380 -211 -121 -122 -183 -239 -212
-403 -28 -162 -5 -310 74 -472 39 -81 59 -108 137 -185 103 -102 168 -144 293
-189 84 -30 95 -31 243 -31 148 0 159 1 243 31 112 40 182 83 269 163 162 150
242 336 241 561 -2 335 -214 619 -538 720 -90 28 -282 36 -370 16z m335 -165
c36 -11 94 -38 128 -59 184 -111 294 -302 294 -512 1 -211 -92 -390 -263 -506
-103 -70 -179 -95 -309 -101 -125 -6 -199 9 -306 63 -236 118 -373 395 -320
649 51 249 225 426 471 481 80 18 222 11 305 -15z"/>
<path d="M1678 3364 c-158 -38 -284 -153 -339 -310 -17 -49 -20 -78 -17 -170
3 -105 5 -114 41 -188 51 -101 122 -172 223 -223 78 -38 78 -38 204 -38 126 0
126 0 203 38 103 51 177 124 222 219 174 366 -147 767 -537 672z"/>
<path d="M634 1891 c-57 -26 -110 -92 -123 -153 -14 -64 -14 -462 0 -527 13
-63 73 -133 132 -156 36 -14 83 -15 319 -13 l276 3 44 30 c28 20 53 49 71 84
l27 55 0 261 0 261 -27 55 c-18 35 -43 64 -71 84 l-44 30 -281 3 c-258 2 -285
1 -323 -17z m602 -125 l34 -34 0 -257 0 -257 -34 -34 -34 -34 -259 0 c-287 0
-292 1 -319 66 -17 41 -20 447 -4 506 6 20 22 46 37 58 24 19 39 20 285 20
l260 0 34 -34z"/>
<path d="M1660 1894 c-45 -20 -87 -59 -111 -106 -17 -34 -19 -61 -19 -312 0
-151 4 -286 9 -299 16 -40 73 -99 116 -118 36 -17 70 -19 310 -19 241 0 274 2
311 19 49 22 97 78 113 130 15 52 15 520 0 572 -16 52 -61 103 -112 128 -41
20 -59 21 -313 21 -218 -1 -276 -4 -304 -16z m596 -128 l34 -34 0 -252 c0
-273 -4 -295 -57 -319 -15 -7 -116 -11 -277 -11 -240 0 -255 1 -279 20 -40 32
-47 77 -47 305 0 228 7 273 47 305 24 19 39 20 285 20 l260 0 34 -34z"/>
<path d="M2672 1879 c-51 -26 -95 -76 -111 -128 -15 -52 -15 -520 0 -572 16
-52 61 -103 112 -128 41 -20 60 -21 310 -21 291 0 312 3 371 58 62 58 66 79
66 377 0 298 -4 319 -66 377 -59 55 -80 58 -371 58 -253 0 -270 -1 -311 -21z
m599 -109 c16 -12 33 -36 39 -58 13 -48 13 -446 0 -494 -6 -20 -22 -46 -37
-58 -24 -19 -39 -20 -279 -20 -161 0 -262 4 -277 11 -53 24 -57 46 -57 319 l0
252 34 34 34 34 257 0 c243 0 259 -1 286 -20z"/>
<path d="M229 1439 c-50 -50 5 -267 105 -418 230 -345 690 -532 1231 -500 77
4 155 11 173 14 17 3 32 4 32 1 0 -3 -63 -67 -140 -143 -93 -92 -140 -145
-140 -159 0 -12 9 -33 21 -48 16 -20 29 -26 57 -26 34 1 54 17 277 231 132
127 244 241 248 254 20 58 3 70 -323 222 -168 79 -312 143 -321 143 -9 0 -28
-9 -43 -21 -29 -23 -36 -73 -13 -102 6 -9 91 -52 187 -97 96 -45 179 -85 183
-89 21 -21 -253 -41 -418 -31 -149 9 -223 21 -339 55 -221 64 -413 194 -532
361 -61 85 -93 161 -110 257 -10 60 -20 87 -35 100 -29 23 -74 22 -100 -4z"/>
</g>
</svg>
